solid ascii
  facet normal -2.537653e-016 1.000000e+000 0.000000e+000
    outer loop
      vertex   -1.750000e+001 -1.000000e+000 -1.200000e+001
      vertex   -2.450000e+001 -1.000000e+000 -1.200000e+001
      vertex   -1.750000e+001 -1.000000e+000 -1.000000e+001
    endloop
  endfacet
  facet normal -2.537653e-016 1.000000e+000 0.000000e+000
    outer loop
      vertex   -1.750000e+001 -1.000000e+000 -1.000000e+001
      vertex   -2.450000e+001 -1.000000e+000 -1.200000e+001
      vertex   -2.450000e+001 -1.000000e+000 -1.000000e+001
    endloop
  endfacet
  facet normal -1.000000e+000 0.000000e+000 0.000000e+000
    outer loop
      vertex   -1.750000e+001 2.000000e+000 -1.200000e+001
      vertex   -1.750000e+001 -1.000000e+000 -1.200000e+001
      vertex   -1.750000e+001 2.000000e+000 -1.000000e+001
    endloop
  endfacet
  facet normal -1.000000e+000 -0.000000e+000 0.000000e+000
    outer loop
      vertex   -1.750000e+001 2.000000e+000 -1.000000e+001
      vertex   -1.750000e+001 -1.000000e+000 -1.200000e+001
      vertex   -1.750000e+001 -1.000000e+000 -1.000000e+001
    endloop
  endfacet
  facet normal 0.000000e+000 -1.000000e+000 0.000000e+000
    outer loop
      vertex   -2.450000e+001 2.000000e+000 -1.200000e+001
      vertex   -1.750000e+001 2.000000e+000 -1.200000e+001
      vertex   -2.450000e+001 2.000000e+000 -1.000000e+001
    endloop
  endfacet
  facet normal 0.000000e+000 -1.000000e+000 0.000000e+000
    outer loop
      vertex   -2.450000e+001 2.000000e+000 -1.000000e+001
      vertex   -1.750000e+001 2.000000e+000 -1.200000e+001
      vertex   -1.750000e+001 2.000000e+000 -1.000000e+001
    endloop
  endfacet
  facet normal -1.000000e+000 -4.736952e-016 0.000000e+000
    outer loop
      vertex   -2.450000e+001 -1.000000e+000 -1.200000e+001
      vertex   -2.450000e+001 -1.600000e+001 -1.200000e+001
      vertex   -2.450000e+001 -1.000000e+000 -1.000000e+001
    endloop
  endfacet
  facet normal -1.000000e+000 -4.736952e-016 0.000000e+000
    outer loop
      vertex   -2.450000e+001 -1.000000e+000 -1.000000e+001
      vertex   -2.450000e+001 -1.600000e+001 -1.200000e+001
      vertex   -2.450000e+001 -1.600000e+001 -1.000000e+001
    endloop
  endfacet
  facet normal -1.000000e+000 0.000000e+000 -0.000000e+000
    outer loop
      vertex   -2.450000e+001 2.000000e+000 -1.000000e+001
      vertex   -2.450000e+001 1.800000e+001 -1.000000e+001
      vertex   -2.450000e+001 2.000000e+000 -1.200000e+001
    endloop
  endfacet
  facet normal -1.000000e+000 0.000000e+000 0.000000e+000
    outer loop
      vertex   -2.450000e+001 2.000000e+000 -1.200000e+001
      vertex   -2.450000e+001 1.800000e+001 -1.000000e+001
      vertex   -2.450000e+001 1.800000e+001 -1.200000e+001
    endloop
  endfacet
  facet normal 0.000000e+000 -0.000000e+000 1.000000e+000
    outer loop
      vertex   -2.450000e+001 -1.600000e+001 -1.000000e+001
      vertex   2.250000e+001 -1.600000e+001 -1.000000e+001
      vertex   -4.000000e+000 -1.400000e+001 -1.000000e+001
    endloop
  endfacet
  facet normal -0.000000e+000 0.000000e+000 1.000000e+000
    outer loop
      vertex   -1.950000e+001 -1.400000e+001 -1.000000e+001
      vertex   -2.450000e+001 -1.600000e+001 -1.000000e+001
      vertex   -4.000000e+000 -1.400000e+001 -1.000000e+001
    endloop
  endfacet
  facet normal 0.000000e+000 0.000000e+000 1.000000e+000
    outer loop
      vertex   -1.950000e+001 -1.400000e+001 -1.000000e+001
      vertex   -1.975882e+001 -1.396593e+001 -1.000000e+001
      vertex   -2.450000e+001 -1.600000e+001 -1.000000e+001
    endloop
  endfacet
  facet normal 0.000000e+000 -0.000000e+000 1.000000e+000
    outer loop
      vertex   -2.450000e+001 -1.600000e+001 -1.000000e+001
      vertex   -1.975882e+001 -1.396593e+001 -1.000000e+001
      vertex   -2.000000e+001 -1.386603e+001 -1.000000e+001
    endloop
  endfacet
  facet normal -0.000000e+000 0.000000e+000 1.000000e+000
    outer loop
      vertex   -2.020711e+001 -1.370711e+001 -1.000000e+001
      vertex   -2.450000e+001 -1.600000e+001 -1.000000e+001
      vertex   -2.000000e+001 -1.386603e+001 -1.000000e+001
    endloop
  endfacet
  facet normal 0.000000e+000 0.000000e+000 1.000000e+000
    outer loop
      vertex   -2.020711e+001 -1.370711e+001 -1.000000e+001
      vertex   -2.036603e+001 -1.350000e+001 -1.000000e+001
      vertex   -2.450000e+001 -1.600000e+001 -1.000000e+001
    endloop
  endfacet
  facet normal 0.000000e+000 -0.000000e+000 1.000000e+000
    outer loop
      vertex   -2.450000e+001 -1.600000e+001 -1.000000e+001
      vertex   -2.036603e+001 -1.350000e+001 -1.000000e+001
      vertex   -2.046593e+001 -1.325882e+001 -1.000000e+001
    endloop
  endfacet
  facet normal -0.000000e+000 0.000000e+000 1.000000e+000
    outer loop
      vertex   -2.050000e+001 -1.300000e+001 -1.000000e+001
      vertex   -2.450000e+001 -1.600000e+001 -1.000000e+001
      vertex   -2.046593e+001 -1.325882e+001 -1.000000e+001
    endloop
  endfacet
  facet normal 0.000000e+000 -0.000000e+000 1.000000e+000
    outer loop
      vertex   -2.050000e+001 -1.300000e+001 -1.000000e+001
      vertex   -2.050000e+001 -6.250000e+000 -1.000000e+001
      vertex   -2.450000e+001 -1.600000e+001 -1.000000e+001
    endloop
  endfacet
  facet normal 0.000000e+000 -0.000000e+000 1.000000e+000
    outer loop
      vertex   -2.450000e+001 -1.600000e+001 -1.000000e+001
      vertex   -2.050000e+001 -6.250000e+000 -1.000000e+001
      vertex   -2.450000e+001 -1.000000e+000 -1.000000e+001
    endloop
  endfacet
  facet normal -0.000000e+000 0.000000e+000 1.000000e+000
    outer loop
      vertex   -2.450000e+001 -1.000000e+000 -1.000000e+001
      vertex   -2.050000e+001 -6.250000e+000 -1.000000e+001
      vertex   -1.750000e+001 -1.000000e+000 -1.000000e+001
    endloop
  endfacet
  facet normal -0.000000e+000 0.000000e+000 1.000000e+000
    outer loop
      vertex   -1.750000e+001 -1.000000e+000 -1.000000e+001
      vertex   -2.050000e+001 -6.250000e+000 -1.000000e+001
      vertex   -1.750000e+001 -6.250000e+000 -1.000000e+001
    endloop
  endfacet
  facet normal 0.000000e+000 0.000000e+000 1.000000e+000
    outer loop
      vertex   -4.000000e+000 -1.000000e+001 -1.000000e+001
      vertex   -1.750000e+001 -6.250000e+000 -1.000000e+001
      vertex   -1.750000e+001 -1.000000e+001 -1.000000e+001
    endloop
  endfacet
  facet normal 0.000000e+000 0.000000e+000 1.000000e+000
    outer loop
      vertex   -4.000000e+000 -1.000000e+001 -1.000000e+001
      vertex   -1.750000e+001 -1.000000e+000 -1.000000e+001
      vertex   -1.750000e+001 -6.250000e+000 -1.000000e+001
    endloop
  endfacet
  facet normal 0.000000e+000 0.000000e+000 1.000000e+000
    outer loop
      vertex   -4.000000e+000 -1.000000e+001 -1.000000e+001
      vertex   -1.750000e+001 2.000000e+000 -1.000000e+001
      vertex   -1.750000e+001 -1.000000e+000 -1.000000e+001
    endloop
  endfacet
  facet normal 0.000000e+000 -0.000000e+000 1.000000e+000
    outer loop
      vertex   -4.000000e+000 -1.000000e+001 -1.000000e+001
      vertex   -4.000000e+000 1.100000e+001 -1.000000e+001
      vertex   -1.750000e+001 2.000000e+000 -1.000000e+001
    endloop
  endfacet
  facet normal 0.000000e+000 -0.000000e+000 1.000000e+000
    outer loop
      vertex   -4.000000e+000 -1.000000e+001 -1.000000e+001
      vertex   1.650000e+001 6.500000e+000 -1.000000e+001
      vertex   -4.000000e+000 1.100000e+001 -1.000000e+001
    endloop
  endfacet
  facet normal 0.000000e+000 -0.000000e+000 1.000000e+000
    outer loop
      vertex   -4.000000e+000 -1.000000e+001 -1.000000e+001
      vertex   1.650000e+001 -9.000000e+000 -1.000000e+001
      vertex   1.650000e+001 6.500000e+000 -1.000000e+001
    endloop
  endfacet
  facet normal -0.000000e+000 0.000000e+000 1.000000e+000
    outer loop
      vertex   -4.000000e+000 -1.000000e+001 -1.000000e+001
      vertex   -4.000000e+000 -1.400000e+001 -1.000000e+001
      vertex   1.650000e+001 -9.000000e+000 -1.000000e+001
    endloop
  endfacet
  facet normal 0.000000e+000 0.000000e+000 1.000000e+000
    outer loop
      vertex   1.650000e+001 -9.000000e+000 -1.000000e+001
      vertex   -4.000000e+000 -1.400000e+001 -1.000000e+001
      vertex   2.250000e+001 -1.600000e+001 -1.000000e+001
    endloop
  endfacet
  facet normal -0.000000e+000 -0.000000e+000 1.000000e+000
    outer loop
      vertex   2.050000e+001 -9.000000e+000 -1.000000e+001
      vertex   2.250000e+001 -1.600000e+001 -1.000000e+001
      vertex   2.050000e+001 6.500000e+000 -1.000000e+001
    endloop
  endfacet
  facet normal 0.000000e+000 0.000000e+000 1.000000e+000
    outer loop
      vertex   2.050000e+001 -9.000000e+000 -1.000000e+001
      vertex   1.650000e+001 -9.000000e+000 -1.000000e+001
      vertex   2.250000e+001 -1.600000e+001 -1.000000e+001
    endloop
  endfacet
  facet normal 0.000000e+000 0.000000e+000 1.000000e+000
    outer loop
      vertex   -1.100000e+001 1.400000e+001 -1.000000e+001
      vertex   -2.450000e+001 1.800000e+001 -1.000000e+001
      vertex   -1.100000e+001 1.100000e+001 -1.000000e+001
    endloop
  endfacet
  facet normal 0.000000e+000 -0.000000e+000 1.000000e+000
    outer loop
      vertex   -1.100000e+001 1.400000e+001 -1.000000e+001
      vertex   -4.000000e+000 1.400000e+001 -1.000000e+001
      vertex   -2.450000e+001 1.800000e+001 -1.000000e+001
    endloop
  endfacet
  facet normal -0.000000e+000 0.000000e+000 1.000000e+000
    outer loop
      vertex   -2.450000e+001 1.800000e+001 -1.000000e+001
      vertex   -4.000000e+000 1.400000e+001 -1.000000e+001
      vertex   2.250000e+001 1.800000e+001 -1.000000e+001
    endloop
  endfacet
  facet normal 0.000000e+000 0.000000e+000 1.000000e+000
    outer loop
      vertex   2.250000e+001 1.800000e+001 -1.000000e+001
      vertex   -4.000000e+000 1.400000e+001 -1.000000e+001
      vertex   1.650000e+001 6.500000e+000 -1.000000e+001
    endloop
  endfacet
  facet normal 0.000000e+000 -0.000000e+000 1.000000e+000
    outer loop
      vertex   2.050000e+001 6.500000e+000 -1.000000e+001
      vertex   2.250000e+001 1.800000e+001 -1.000000e+001
      vertex   1.650000e+001 6.500000e+000 -1.000000e+001
    endloop
  endfacet
  facet normal -0.000000e+000 -0.000000e+000 1.000000e+000
    outer loop
      vertex   2.050000e+001 6.500000e+000 -1.000000e+001
      vertex   2.250000e+001 -1.600000e+001 -1.000000e+001
      vertex   2.250000e+001 1.800000e+001 -1.000000e+001
    endloop
  endfacet
  facet normal 0.000000e+000 0.000000e+000 1.000000e+000
    outer loop
      vertex   -4.000000e+000 1.400000e+001 -1.000000e+001
      vertex   -4.000000e+000 1.100000e+001 -1.000000e+001
      vertex   1.650000e+001 6.500000e+000 -1.000000e+001
    endloop
  endfacet
  facet normal 0.000000e+000 0.000000e+000 1.000000e+000
    outer loop
      vertex   -4.000000e+000 1.100000e+001 -1.000000e+001
      vertex   -1.100000e+001 1.100000e+001 -1.000000e+001
      vertex   -1.750000e+001 2.000000e+000 -1.000000e+001
    endloop
  endfacet
  facet normal 0.000000e+000 -0.000000e+000 1.000000e+000
    outer loop
      vertex   -1.750000e+001 2.000000e+000 -1.000000e+001
      vertex   -1.100000e+001 1.100000e+001 -1.000000e+001
      vertex   -2.450000e+001 1.800000e+001 -1.000000e+001
    endloop
  endfacet
  facet normal 0.000000e+000 -0.000000e+000 1.000000e+000
    outer loop
      vertex   -2.450000e+001 2.000000e+000 -1.000000e+001
      vertex   -1.750000e+001 2.000000e+000 -1.000000e+001
      vertex   -2.450000e+001 1.800000e+001 -1.000000e+001
    endloop
  endfacet
  facet normal -1.305262e-001 -9.914449e-001 -1.760956e-016
    outer loop
      vertex   -1.950000e+001 -1.400000e+001 0.000000e+000
      vertex   -1.975882e+001 -1.396593e+001 0.000000e+000
      vertex   -1.950000e+001 -1.400000e+001 -1.000000e+001
    endloop
  endfacet
  facet normal -1.305262e-001 -9.914449e-001 -0.000000e+000
    outer loop
      vertex   -1.950000e+001 -1.400000e+001 -1.000000e+001
      vertex   -1.975882e+001 -1.396593e+001 0.000000e+000
      vertex   -1.975882e+001 -1.396593e+001 -1.000000e+001
    endloop
  endfacet
  facet normal -3.826834e-001 -9.238795e-001 0.000000e+000
    outer loop
      vertex   -1.975882e+001 -1.396593e+001 -1.000000e+001
      vertex   -1.975882e+001 -1.396593e+001 0.000000e+000
      vertex   -2.000000e+001 -1.386603e+001 0.000000e+000
    endloop
  endfacet
  facet normal -6.087614e-001 -7.933533e-001 0.000000e+000
    outer loop
      vertex   -2.000000e+001 -1.386603e+001 -1.000000e+001
      vertex   -2.000000e+001 -1.386603e+001 0.000000e+000
      vertex   -2.020711e+001 -1.370711e+001 0.000000e+000
    endloop
  endfacet
  facet normal -7.933533e-001 -6.087614e-001 0.000000e+000
    outer loop
      vertex   -2.020711e+001 -1.370711e+001 -1.000000e+001
      vertex   -2.020711e+001 -1.370711e+001 0.000000e+000
      vertex   -2.036603e+001 -1.350000e+001 0.000000e+000
    endloop
  endfacet
  facet normal -9.238795e-001 -3.826834e-001 0.000000e+000
    outer loop
      vertex   -2.036603e+001 -1.350000e+001 -1.000000e+001
      vertex   -2.036603e+001 -1.350000e+001 0.000000e+000
      vertex   -2.046593e+001 -1.325882e+001 0.000000e+000
    endloop
  endfacet
  facet normal -9.914449e-001 -1.305262e-001 0.000000e+000
    outer loop
      vertex   -2.046593e+001 -1.325882e+001 -1.000000e+001
      vertex   -2.046593e+001 -1.325882e+001 0.000000e+000
      vertex   -2.050000e+001 -1.300000e+001 0.000000e+000
    endloop
  endfacet
  facet normal -9.914449e-001 -1.305262e-001 0.000000e+000
    outer loop
      vertex   -2.050000e+001 -1.300000e+001 -1.000000e+001
      vertex   -2.046593e+001 -1.325882e+001 -1.000000e+001
      vertex   -2.050000e+001 -1.300000e+001 0.000000e+000
    endloop
  endfacet
  facet normal -9.238795e-001 -3.826834e-001 0.000000e+000
    outer loop
      vertex   -2.046593e+001 -1.325882e+001 -1.000000e+001
      vertex   -2.036603e+001 -1.350000e+001 -1.000000e+001
      vertex   -2.046593e+001 -1.325882e+001 0.000000e+000
    endloop
  endfacet
  facet normal -7.933533e-001 -6.087614e-001 0.000000e+000
    outer loop
      vertex   -2.036603e+001 -1.350000e+001 -1.000000e+001
      vertex   -2.020711e+001 -1.370711e+001 -1.000000e+001
      vertex   -2.036603e+001 -1.350000e+001 0.000000e+000
    endloop
  endfacet
  facet normal -6.087614e-001 -7.933533e-001 0.000000e+000
    outer loop
      vertex   -2.020711e+001 -1.370711e+001 -1.000000e+001
      vertex   -2.000000e+001 -1.386603e+001 -1.000000e+001
      vertex   -2.020711e+001 -1.370711e+001 0.000000e+000
    endloop
  endfacet
  facet normal -3.826834e-001 -9.238795e-001 0.000000e+000
    outer loop
      vertex   -2.000000e+001 -1.386603e+001 -1.000000e+001
      vertex   -1.975882e+001 -1.396593e+001 -1.000000e+001
      vertex   -2.000000e+001 -1.386603e+001 0.000000e+000
    endloop
  endfacet
  facet normal -0.000000e+000 -0.000000e+000 1.000000e+000
    outer loop
      vertex   -2.046593e+001 -1.325882e+001 0.000000e+000
      vertex   -1.950000e+001 -1.400000e+001 0.000000e+000
      vertex   -2.050000e+001 -1.300000e+001 0.000000e+000
    endloop
  endfacet
  facet normal 0.000000e+000 0.000000e+000 1.000000e+000
    outer loop
      vertex   -2.046593e+001 -1.325882e+001 0.000000e+000
      vertex   -2.036603e+001 -1.350000e+001 0.000000e+000
      vertex   -1.950000e+001 -1.400000e+001 0.000000e+000
    endloop
  endfacet
  facet normal 0.000000e+000 0.000000e+000 1.000000e+000
    outer loop
      vertex   -1.950000e+001 -1.400000e+001 0.000000e+000
      vertex   -2.036603e+001 -1.350000e+001 0.000000e+000
      vertex   -2.020711e+001 -1.370711e+001 0.000000e+000
    endloop
  endfacet
  facet normal -0.000000e+000 -0.000000e+000 1.000000e+000
    outer loop
      vertex   -2.000000e+001 -1.386603e+001 0.000000e+000
      vertex   -1.950000e+001 -1.400000e+001 0.000000e+000
      vertex   -2.020711e+001 -1.370711e+001 0.000000e+000
    endloop
  endfacet
  facet normal 0.000000e+000 0.000000e+000 1.000000e+000
    outer loop
      vertex   -2.000000e+001 -1.386603e+001 0.000000e+000
      vertex   -1.975882e+001 -1.396593e+001 0.000000e+000
      vertex   -1.950000e+001 -1.400000e+001 0.000000e+000
    endloop
  endfacet
  facet normal -0.000000e+000 0.000000e+000 1.000000e+000
    outer loop
      vertex   -2.050000e+001 -1.300000e+001 0.000000e+000
      vertex   -1.950000e+001 -1.400000e+001 0.000000e+000
      vertex   -1.750000e+001 -1.000000e+001 0.000000e+000
    endloop
  endfacet
  facet normal -0.000000e+000 0.000000e+000 1.000000e+000
    outer loop
      vertex   -2.050000e+001 -6.250000e+000 0.000000e+000
      vertex   -1.750000e+001 -1.000000e+001 0.000000e+000
      vertex   -1.750000e+001 -6.250000e+000 0.000000e+000
    endloop
  endfacet
  facet normal -0.000000e+000 0.000000e+000 1.000000e+000
    outer loop
      vertex   -2.050000e+001 -6.250000e+000 0.000000e+000
      vertex   -2.050000e+001 -1.300000e+001 0.000000e+000
      vertex   -1.750000e+001 -1.000000e+001 0.000000e+000
    endloop
  endfacet
  facet normal 0.000000e+000 0.000000e+000 1.000000e+000
    outer loop
      vertex   -4.000000e+000 -1.000000e+001 0.000000e+000
      vertex   -1.750000e+001 -1.000000e+001 0.000000e+000
      vertex   -4.000000e+000 -1.400000e+001 0.000000e+000
    endloop
  endfacet
  facet normal 0.000000e+000 0.000000e+000 1.000000e+000
    outer loop
      vertex   -4.000000e+000 -1.400000e+001 0.000000e+000
      vertex   -1.750000e+001 -1.000000e+001 0.000000e+000
      vertex   -1.950000e+001 -1.400000e+001 0.000000e+000
    endloop
  endfacet
  facet normal 3.438110e-016 -1.000000e+000 -1.776357e-016
    outer loop
      vertex   -1.950000e+001 -1.400000e+001 -1.000000e+001
      vertex   -4.000000e+000 -1.400000e+001 -1.000000e+001
      vertex   -1.950000e+001 -1.400000e+001 0.000000e+000
    endloop
  endfacet
  facet normal 4.584147e-016 -1.000000e+000 0.000000e+000
    outer loop
      vertex   -1.950000e+001 -1.400000e+001 0.000000e+000
      vertex   -4.000000e+000 -1.400000e+001 -1.000000e+001
      vertex   -4.000000e+000 -1.400000e+001 0.000000e+000
    endloop
  endfacet
  facet normal 0.000000e+000 -0.000000e+000 1.000000e+000
    outer loop
      vertex   1.650000e+001 -9.000000e+000 -2.000000e+000
      vertex   2.050000e+001 -9.000000e+000 -2.000000e+000
      vertex   1.650000e+001 6.500000e+000 -2.000000e+000
    endloop
  endfacet
  facet normal -0.000000e+000 -0.000000e+000 1.000000e+000
    outer loop
      vertex   1.650000e+001 6.500000e+000 -2.000000e+000
      vertex   2.050000e+001 -9.000000e+000 -2.000000e+000
      vertex   2.050000e+001 6.500000e+000 -2.000000e+000
    endloop
  endfacet
  facet normal 1.000000e+000 2.292073e-016 0.000000e+000
    outer loop
      vertex   2.050000e+001 6.500000e+000 -2.000000e+000
      vertex   2.050000e+001 -9.000000e+000 -2.000000e+000
      vertex   2.050000e+001 6.500000e+000 -1.000000e+001
    endloop
  endfacet
  facet normal 1.000000e+000 2.292073e-016 -5.089425e-032
    outer loop
      vertex   2.050000e+001 6.500000e+000 -1.000000e+001
      vertex   2.050000e+001 -9.000000e+000 -2.000000e+000
      vertex   2.050000e+001 -9.000000e+000 -1.000000e+001
    endloop
  endfacet
  facet normal 0.000000e+000 -1.000000e+000 2.220446e-016
    outer loop
      vertex   2.050000e+001 -9.000000e+000 -2.000000e+000
      vertex   1.650000e+001 -9.000000e+000 -2.000000e+000
      vertex   2.050000e+001 -9.000000e+000 -1.000000e+001
    endloop
  endfacet
  facet normal 0.000000e+000 -1.000000e+000 2.220446e-016
    outer loop
      vertex   2.050000e+001 -9.000000e+000 -1.000000e+001
      vertex   1.650000e+001 -9.000000e+000 -2.000000e+000
      vertex   1.650000e+001 -9.000000e+000 -1.000000e+001
    endloop
  endfacet
  facet normal 0.000000e+000 0.000000e+000 1.000000e+000
    outer loop
      vertex   -4.000000e+000 1.400000e+001 -1.500000e+000
      vertex   -1.100000e+001 1.400000e+001 -1.500000e+000
      vertex   -4.000000e+000 1.100000e+001 -1.500000e+000
    endloop
  endfacet
  facet normal 0.000000e+000 0.000000e+000 1.000000e+000
    outer loop
      vertex   -4.000000e+000 1.100000e+001 -1.500000e+000
      vertex   -1.100000e+001 1.400000e+001 -1.500000e+000
      vertex   -1.100000e+001 1.100000e+001 -1.500000e+000
    endloop
  endfacet
  facet normal -1.015061e-015 1.000000e+000 4.179663e-016
    outer loop
      vertex   -1.100000e+001 1.400000e+001 -1.500000e+000
      vertex   -4.000000e+000 1.400000e+001 -1.500000e+000
      vertex   -1.100000e+001 1.400000e+001 -1.000000e+001
    endloop
  endfacet
  facet normal -5.075305e-016 1.000000e+000 -2.121307e-031
    outer loop
      vertex   -1.100000e+001 1.400000e+001 -1.000000e+001
      vertex   -4.000000e+000 1.400000e+001 -1.500000e+000
      vertex   -4.000000e+000 1.400000e+001 -1.000000e+001
    endloop
  endfacet
  facet normal 1.000000e+000 0.000000e+000 4.179663e-016
    outer loop
      vertex   -4.000000e+000 1.400000e+001 -1.500000e+000
      vertex   -4.000000e+000 1.100000e+001 -1.500000e+000
      vertex   -4.000000e+000 1.400000e+001 -1.000000e+001
    endloop
  endfacet
  facet normal 1.000000e+000 0.000000e+000 4.179663e-016
    outer loop
      vertex   -4.000000e+000 1.400000e+001 -1.000000e+001
      vertex   -4.000000e+000 1.100000e+001 -1.500000e+000
      vertex   -4.000000e+000 1.100000e+001 -1.000000e+001
    endloop
  endfacet
  facet normal 3.023586e-016 -1.000000e+000 0.000000e+000
    outer loop
      vertex   -2.450000e+001 -1.600000e+001 -1.200000e+001
      vertex   2.250000e+001 -1.600000e+001 -1.200000e+001
      vertex   -2.450000e+001 -1.600000e+001 -1.000000e+001
    endloop
  endfacet
  facet normal 3.023586e-016 -1.000000e+000 0.000000e+000
    outer loop
      vertex   -2.450000e+001 -1.600000e+001 -1.000000e+001
      vertex   2.250000e+001 -1.600000e+001 -1.200000e+001
      vertex   2.250000e+001 -1.600000e+001 -1.000000e+001
    endloop
  endfacet
  facet normal 1.000000e+000 2.089832e-016 0.000000e+000
    outer loop
      vertex   2.250000e+001 -1.600000e+001 -1.200000e+001
      vertex   2.250000e+001 1.800000e+001 -1.200000e+001
      vertex   2.250000e+001 -1.600000e+001 -1.000000e+001
    endloop
  endfacet
  facet normal 1.000000e+000 2.089832e-016 -0.000000e+000
    outer loop
      vertex   2.250000e+001 -1.600000e+001 -1.000000e+001
      vertex   2.250000e+001 1.800000e+001 -1.200000e+001
      vertex   2.250000e+001 1.800000e+001 -1.000000e+001
    endloop
  endfacet
  facet normal -6.047172e-016 1.000000e+000 0.000000e+000
    outer loop
      vertex   2.250000e+001 1.800000e+001 -1.200000e+001
      vertex   -2.450000e+001 1.800000e+001 -1.200000e+001
      vertex   2.250000e+001 1.800000e+001 -1.000000e+001
    endloop
  endfacet
  facet normal -6.047172e-016 1.000000e+000 0.000000e+000
    outer loop
      vertex   2.250000e+001 1.800000e+001 -1.000000e+001
      vertex   -2.450000e+001 1.800000e+001 -1.200000e+001
      vertex   -2.450000e+001 1.800000e+001 -1.000000e+001
    endloop
  endfacet
  facet normal 0.000000e+000 0.000000e+000 -1.000000e+000
    outer loop
      vertex   -2.450000e+001 2.000000e+000 -1.200000e+001
      vertex   -2.450000e+001 1.800000e+001 -1.200000e+001
      vertex   -1.750000e+001 2.000000e+000 -1.200000e+001
    endloop
  endfacet
  facet normal 0.000000e+000 0.000000e+000 -1.000000e+000
    outer loop
      vertex   -1.750000e+001 2.000000e+000 -1.200000e+001
      vertex   -2.450000e+001 1.800000e+001 -1.200000e+001
      vertex   2.250000e+001 1.800000e+001 -1.200000e+001
    endloop
  endfacet
  facet normal 0.000000e+000 0.000000e+000 -1.000000e+000
    outer loop
      vertex   2.250000e+001 -1.600000e+001 -1.200000e+001
      vertex   -1.750000e+001 2.000000e+000 -1.200000e+001
      vertex   2.250000e+001 1.800000e+001 -1.200000e+001
    endloop
  endfacet
  facet normal 0.000000e+000 0.000000e+000 -1.000000e+000
    outer loop
      vertex   2.250000e+001 -1.600000e+001 -1.200000e+001
      vertex   -1.750000e+001 -1.000000e+000 -1.200000e+001
      vertex   -1.750000e+001 2.000000e+000 -1.200000e+001
    endloop
  endfacet
  facet normal -0.000000e+000 0.000000e+000 -1.000000e+000
    outer loop
      vertex   2.250000e+001 -1.600000e+001 -1.200000e+001
      vertex   -2.450000e+001 -1.600000e+001 -1.200000e+001
      vertex   -1.750000e+001 -1.000000e+000 -1.200000e+001
    endloop
  endfacet
  facet normal -0.000000e+000 0.000000e+000 -1.000000e+000
    outer loop
      vertex   -1.750000e+001 -1.000000e+000 -1.200000e+001
      vertex   -2.450000e+001 -1.600000e+001 -1.200000e+001
      vertex   -2.450000e+001 -1.000000e+000 -1.200000e+001
    endloop
  endfacet
  facet normal -1.000000e+000 -2.292073e-016 5.089425e-032
    outer loop
      vertex   1.650000e+001 -9.000000e+000 -2.000000e+000
      vertex   1.650000e+001 6.500000e+000 -2.000000e+000
      vertex   1.650000e+001 -9.000000e+000 -1.000000e+001
    endloop
  endfacet
  facet normal -1.000000e+000 -2.292073e-016 -0.000000e+000
    outer loop
      vertex   1.650000e+001 -9.000000e+000 -1.000000e+001
      vertex   1.650000e+001 6.500000e+000 -2.000000e+000
      vertex   1.650000e+001 6.500000e+000 -1.000000e+001
    endloop
  endfacet
  facet normal -0.000000e+000 1.000000e+000 0.000000e+000
    outer loop
      vertex   1.650000e+001 6.500000e+000 -2.000000e+000
      vertex   2.050000e+001 6.500000e+000 -2.000000e+000
      vertex   1.650000e+001 6.500000e+000 -1.000000e+001
    endloop
  endfacet
  facet normal -0.000000e+000 1.000000e+000 0.000000e+000
    outer loop
      vertex   1.650000e+001 6.500000e+000 -1.000000e+001
      vertex   2.050000e+001 6.500000e+000 -2.000000e+000
      vertex   2.050000e+001 6.500000e+000 -1.000000e+001
    endloop
  endfacet
  facet normal -1.000000e+000 0.000000e+000 -0.000000e+000
    outer loop
      vertex   -1.100000e+001 1.100000e+001 -1.500000e+000
      vertex   -1.100000e+001 1.400000e+001 -1.500000e+000
      vertex   -1.100000e+001 1.100000e+001 -1.000000e+001
    endloop
  endfacet
  facet normal -1.000000e+000 0.000000e+000 0.000000e+000
    outer loop
      vertex   -1.100000e+001 1.100000e+001 -1.000000e+001
      vertex   -1.100000e+001 1.400000e+001 -1.500000e+000
      vertex   -1.100000e+001 1.400000e+001 -1.000000e+001
    endloop
  endfacet
  facet normal 5.075305e-016 -1.000000e+000 2.121307e-031
    outer loop
      vertex   -4.000000e+000 1.100000e+001 -1.500000e+000
      vertex   -1.100000e+001 1.100000e+001 -1.500000e+000
      vertex   -4.000000e+000 1.100000e+001 -1.000000e+001
    endloop
  endfacet
  facet normal 5.075305e-016 -1.000000e+000 0.000000e+000
    outer loop
      vertex   -4.000000e+000 1.100000e+001 -1.000000e+001
      vertex   -1.100000e+001 1.100000e+001 -1.500000e+000
      vertex   -1.100000e+001 1.100000e+001 -1.000000e+001
    endloop
  endfacet
  facet normal 1.000000e+000 0.000000e+000 0.000000e+000
    outer loop
      vertex   -4.000000e+000 -1.000000e+001 0.000000e+000
      vertex   -4.000000e+000 -1.400000e+001 0.000000e+000
      vertex   -4.000000e+000 -1.000000e+001 -1.000000e+001
    endloop
  endfacet
  facet normal 1.000000e+000 0.000000e+000 0.000000e+000
    outer loop
      vertex   -4.000000e+000 -1.000000e+001 -1.000000e+001
      vertex   -4.000000e+000 -1.400000e+001 0.000000e+000
      vertex   -4.000000e+000 -1.400000e+001 -1.000000e+001
    endloop
  endfacet
  facet normal -1.000000e+000 0.000000e+000 -0.000000e+000
    outer loop
      vertex   -2.050000e+001 -1.300000e+001 0.000000e+000
      vertex   -2.050000e+001 -6.250000e+000 0.000000e+000
      vertex   -2.050000e+001 -1.300000e+001 -1.000000e+001
    endloop
  endfacet
  facet normal -1.000000e+000 0.000000e+000 0.000000e+000
    outer loop
      vertex   -2.050000e+001 -1.300000e+001 -1.000000e+001
      vertex   -2.050000e+001 -6.250000e+000 0.000000e+000
      vertex   -2.050000e+001 -6.250000e+000 -1.000000e+001
    endloop
  endfacet
  facet normal -0.000000e+000 1.000000e+000 0.000000e+000
    outer loop
      vertex   -2.050000e+001 -6.250000e+000 0.000000e+000
      vertex   -1.750000e+001 -6.250000e+000 0.000000e+000
      vertex   -2.050000e+001 -6.250000e+000 -1.000000e+001
    endloop
  endfacet
  facet normal -0.000000e+000 1.000000e+000 0.000000e+000
    outer loop
      vertex   -2.050000e+001 -6.250000e+000 -1.000000e+001
      vertex   -1.750000e+001 -6.250000e+000 0.000000e+000
      vertex   -1.750000e+001 -6.250000e+000 -1.000000e+001
    endloop
  endfacet
  facet normal 1.000000e+000 0.000000e+000 0.000000e+000
    outer loop
      vertex   -1.750000e+001 -6.250000e+000 0.000000e+000
      vertex   -1.750000e+001 -1.000000e+001 0.000000e+000
      vertex   -1.750000e+001 -6.250000e+000 -1.000000e+001
    endloop
  endfacet
  facet normal 1.000000e+000 0.000000e+000 0.000000e+000
    outer loop
      vertex   -1.750000e+001 -6.250000e+000 -1.000000e+001
      vertex   -1.750000e+001 -1.000000e+001 0.000000e+000
      vertex   -1.750000e+001 -1.000000e+001 -1.000000e+001
    endloop
  endfacet
  facet normal -1.315820e-016 1.000000e+000 0.000000e+000
    outer loop
      vertex   -1.750000e+001 -1.000000e+001 0.000000e+000
      vertex   -4.000000e+000 -1.000000e+001 0.000000e+000
      vertex   -1.750000e+001 -1.000000e+001 -1.000000e+001
    endloop
  endfacet
  facet normal -1.315820e-016 1.000000e+000 0.000000e+000
    outer loop
      vertex   -1.750000e+001 -1.000000e+001 -1.000000e+001
      vertex   -4.000000e+000 -1.000000e+001 0.000000e+000
      vertex   -4.000000e+000 -1.000000e+001 -1.000000e+001
    endloop
  endfacet
endsolid
