solid ascii
  facet normal -1.000000e+000 0.000000e+000 -0.000000e+000
    outer loop
      vertex   -8.030545e+000 -3.375000e+001 3.950000e+001
      vertex   -8.030545e+000 -3.225000e+001 3.950000e+001
      vertex   -8.030545e+000 -3.375000e+001 3.050000e+001
    endloop
  endfacet
  facet normal -1.000000e+000 0.000000e+000 0.000000e+000
    outer loop
      vertex   -8.030545e+000 -3.375000e+001 3.050000e+001
      vertex   -8.030545e+000 -3.225000e+001 3.950000e+001
      vertex   -8.030545e+000 -3.225000e+001 3.050000e+001
    endloop
  endfacet
  facet normal 1.000000e+000 0.000000e+000 0.000000e+000
    outer loop
      vertex   2.500000e+000 -2.975000e+001 3.950000e+001
      vertex   2.500000e+000 -3.225000e+001 3.950000e+001
      vertex   2.500000e+000 -2.975000e+001 3.050000e+001
    endloop
  endfacet
  facet normal 1.000000e+000 0.000000e+000 0.000000e+000
    outer loop
      vertex   2.500000e+000 -2.975000e+001 3.050000e+001
      vertex   2.500000e+000 -3.225000e+001 3.950000e+001
      vertex   2.500000e+000 -3.225000e+001 3.050000e+001
    endloop
  endfacet
  facet normal -0.000000e+000 1.000000e+000 0.000000e+000
    outer loop
      vertex   2.500000e+000 -4.175000e+001 3.950000e+001
      vertex   8.000000e+000 -4.175000e+001 3.950000e+001
      vertex   2.500000e+000 -4.175000e+001 3.050000e+001
    endloop
  endfacet
  facet normal -0.000000e+000 1.000000e+000 0.000000e+000
    outer loop
      vertex   2.500000e+000 -4.175000e+001 3.050000e+001
      vertex   8.000000e+000 -4.175000e+001 3.950000e+001
      vertex   8.000000e+000 -4.175000e+001 3.050000e+001
    endloop
  endfacet
  facet normal 1.000000e+000 0.000000e+000 0.000000e+000
    outer loop
      vertex   8.000000e+000 -4.175000e+001 3.950000e+001
      vertex   8.000000e+000 -4.375000e+001 3.950000e+001
      vertex   8.000000e+000 -4.175000e+001 3.050000e+001
    endloop
  endfacet
  facet normal 1.000000e+000 0.000000e+000 0.000000e+000
    outer loop
      vertex   8.000000e+000 -4.175000e+001 3.050000e+001
      vertex   8.000000e+000 -4.375000e+001 3.950000e+001
      vertex   8.000000e+000 -4.375000e+001 3.050000e+001
    endloop
  endfacet
  facet normal -2.368476e-015 -1.000000e+000 0.000000e+000
    outer loop
      vertex   8.000000e+000 -4.375000e+001 3.950000e+001
      vertex   5.000000e+000 -4.375000e+001 3.950000e+001
      vertex   8.000000e+000 -4.375000e+001 3.050000e+001
    endloop
  endfacet
  facet normal -2.368476e-015 -1.000000e+000 -0.000000e+000
    outer loop
      vertex   8.000000e+000 -4.375000e+001 3.050000e+001
      vertex   5.000000e+000 -4.375000e+001 3.950000e+001
      vertex   5.000000e+000 -4.375000e+001 3.050000e+001
    endloop
  endfacet
  facet normal 1.000000e+000 0.000000e+000 0.000000e+000
    outer loop
      vertex   5.000000e+000 -4.375000e+001 3.950000e+001
      vertex   5.000000e+000 -4.625000e+001 3.950000e+001
      vertex   5.000000e+000 -4.375000e+001 3.050000e+001
    endloop
  endfacet
  facet normal 1.000000e+000 0.000000e+000 0.000000e+000
    outer loop
      vertex   5.000000e+000 -4.375000e+001 3.050000e+001
      vertex   5.000000e+000 -4.625000e+001 3.950000e+001
      vertex   5.000000e+000 -4.625000e+001 3.050000e+001
    endloop
  endfacet
  facet normal -0.000000e+000 1.000000e+000 0.000000e+000
    outer loop
      vertex   5.000000e+000 -4.625000e+001 3.950000e+001
      vertex   8.000000e+000 -4.625000e+001 3.950000e+001
      vertex   5.000000e+000 -4.625000e+001 3.050000e+001
    endloop
  endfacet
  facet normal -0.000000e+000 1.000000e+000 0.000000e+000
    outer loop
      vertex   5.000000e+000 -4.625000e+001 3.050000e+001
      vertex   8.000000e+000 -4.625000e+001 3.950000e+001
      vertex   8.000000e+000 -4.625000e+001 3.050000e+001
    endloop
  endfacet
  facet normal 1.000000e+000 0.000000e+000 0.000000e+000
    outer loop
      vertex   8.000000e+000 -4.625000e+001 3.950000e+001
      vertex   8.000000e+000 -4.825000e+001 3.950000e+001
      vertex   8.000000e+000 -4.625000e+001 3.050000e+001
    endloop
  endfacet
  facet normal 1.000000e+000 0.000000e+000 0.000000e+000
    outer loop
      vertex   8.000000e+000 -4.625000e+001 3.050000e+001
      vertex   8.000000e+000 -4.825000e+001 3.950000e+001
      vertex   8.000000e+000 -4.825000e+001 3.050000e+001
    endloop
  endfacet
  facet normal -0.000000e+000 -1.000000e+000 -0.000000e+000
    outer loop
      vertex   8.000000e+000 -4.825000e+001 3.950000e+001
      vertex   -8.000000e+000 -4.825000e+001 3.950000e+001
      vertex   8.000000e+000 -4.825000e+001 3.050000e+001
    endloop
  endfacet
  facet normal -0.000000e+000 -1.000000e+000 -0.000000e+000
    outer loop
      vertex   8.000000e+000 -4.825000e+001 3.050000e+001
      vertex   -8.000000e+000 -4.825000e+001 3.950000e+001
      vertex   -8.000000e+000 -4.825000e+001 3.050000e+001
    endloop
  endfacet
  facet normal -1.000000e+000 0.000000e+000 -0.000000e+000
    outer loop
      vertex   -8.000000e+000 -4.825000e+001 3.950000e+001
      vertex   -8.000000e+000 -4.625000e+001 3.950000e+001
      vertex   -8.000000e+000 -4.825000e+001 3.050000e+001
    endloop
  endfacet
  facet normal -1.000000e+000 0.000000e+000 0.000000e+000
    outer loop
      vertex   -8.000000e+000 -4.825000e+001 3.050000e+001
      vertex   -8.000000e+000 -4.625000e+001 3.950000e+001
      vertex   -8.000000e+000 -4.625000e+001 3.050000e+001
    endloop
  endfacet
  facet normal -0.000000e+000 1.000000e+000 0.000000e+000
    outer loop
      vertex   -8.000000e+000 -4.625000e+001 3.950000e+001
      vertex   -5.000000e+000 -4.625000e+001 3.950000e+001
      vertex   -8.000000e+000 -4.625000e+001 3.050000e+001
    endloop
  endfacet
  facet normal -0.000000e+000 1.000000e+000 0.000000e+000
    outer loop
      vertex   -8.000000e+000 -4.625000e+001 3.050000e+001
      vertex   -5.000000e+000 -4.625000e+001 3.950000e+001
      vertex   -5.000000e+000 -4.625000e+001 3.050000e+001
    endloop
  endfacet
  facet normal -1.000000e+000 0.000000e+000 -0.000000e+000
    outer loop
      vertex   -5.000000e+000 -4.625000e+001 3.950000e+001
      vertex   -5.000000e+000 -4.375000e+001 3.950000e+001
      vertex   -5.000000e+000 -4.625000e+001 3.050000e+001
    endloop
  endfacet
  facet normal -1.000000e+000 0.000000e+000 0.000000e+000
    outer loop
      vertex   -5.000000e+000 -4.625000e+001 3.050000e+001
      vertex   -5.000000e+000 -4.375000e+001 3.950000e+001
      vertex   -5.000000e+000 -4.375000e+001 3.050000e+001
    endloop
  endfacet
  facet normal -2.368476e-015 -1.000000e+000 0.000000e+000
    outer loop
      vertex   -5.000000e+000 -4.375000e+001 3.950000e+001
      vertex   -8.000000e+000 -4.375000e+001 3.950000e+001
      vertex   -5.000000e+000 -4.375000e+001 3.050000e+001
    endloop
  endfacet
  facet normal -2.368476e-015 -1.000000e+000 -0.000000e+000
    outer loop
      vertex   -5.000000e+000 -4.375000e+001 3.050000e+001
      vertex   -8.000000e+000 -4.375000e+001 3.950000e+001
      vertex   -8.000000e+000 -4.375000e+001 3.050000e+001
    endloop
  endfacet
  facet normal -1.000000e+000 0.000000e+000 -0.000000e+000
    outer loop
      vertex   -8.000000e+000 -4.375000e+001 3.950000e+001
      vertex   -8.000000e+000 -4.175000e+001 3.950000e+001
      vertex   -8.000000e+000 -4.375000e+001 3.050000e+001
    endloop
  endfacet
  facet normal -1.000000e+000 0.000000e+000 0.000000e+000
    outer loop
      vertex   -8.000000e+000 -4.375000e+001 3.050000e+001
      vertex   -8.000000e+000 -4.175000e+001 3.950000e+001
      vertex   -8.000000e+000 -4.175000e+001 3.050000e+001
    endloop
  endfacet
  facet normal -0.000000e+000 1.000000e+000 0.000000e+000
    outer loop
      vertex   -8.000000e+000 -4.175000e+001 3.950000e+001
      vertex   -2.500000e+000 -4.175000e+001 3.950000e+001
      vertex   -8.000000e+000 -4.175000e+001 3.050000e+001
    endloop
  endfacet
  facet normal -0.000000e+000 1.000000e+000 0.000000e+000
    outer loop
      vertex   -8.000000e+000 -4.175000e+001 3.050000e+001
      vertex   -2.500000e+000 -4.175000e+001 3.950000e+001
      vertex   -2.500000e+000 -4.175000e+001 3.050000e+001
    endloop
  endfacet
  facet normal -1.000000e+000 0.000000e+000 -0.000000e+000
    outer loop
      vertex   -2.500000e+000 -4.175000e+001 3.950000e+001
      vertex   -2.500000e+000 -3.375000e+001 3.950000e+001
      vertex   -2.500000e+000 -4.175000e+001 3.050000e+001
    endloop
  endfacet
  facet normal -1.000000e+000 0.000000e+000 0.000000e+000
    outer loop
      vertex   -2.500000e+000 -4.175000e+001 3.050000e+001
      vertex   -2.500000e+000 -3.375000e+001 3.950000e+001
      vertex   -2.500000e+000 -3.375000e+001 3.050000e+001
    endloop
  endfacet
  facet normal -0.000000e+000 -1.000000e+000 -0.000000e+000
    outer loop
      vertex   -2.500000e+000 -3.375000e+001 3.950000e+001
      vertex   -8.030545e+000 -3.375000e+001 3.950000e+001
      vertex   -2.500000e+000 -3.375000e+001 3.050000e+001
    endloop
  endfacet
  facet normal -0.000000e+000 -1.000000e+000 -0.000000e+000
    outer loop
      vertex   -2.500000e+000 -3.375000e+001 3.050000e+001
      vertex   -8.030545e+000 -3.375000e+001 3.950000e+001
      vertex   -8.030545e+000 -3.375000e+001 3.050000e+001
    endloop
  endfacet
  facet normal 1.284761e-015 -1.000000e+000 0.000000e+000
    outer loop
      vertex   -2.500000e+000 -2.975000e+001 3.950000e+001
      vertex   -8.030545e+000 -2.975000e+001 3.950000e+001
      vertex   -2.500000e+000 -2.975000e+001 3.050000e+001
    endloop
  endfacet
  facet normal 1.284761e-015 -1.000000e+000 0.000000e+000
    outer loop
      vertex   -2.500000e+000 -2.975000e+001 3.050000e+001
      vertex   -8.030545e+000 -2.975000e+001 3.950000e+001
      vertex   -8.030545e+000 -2.975000e+001 3.050000e+001
    endloop
  endfacet
  facet normal -1.000000e+000 0.000000e+000 -0.000000e+000
    outer loop
      vertex   -8.030545e+000 -2.975000e+001 3.950000e+001
      vertex   -8.030545e+000 -2.775000e+001 3.950000e+001
      vertex   -8.030545e+000 -2.975000e+001 3.050000e+001
    endloop
  endfacet
  facet normal -1.000000e+000 0.000000e+000 0.000000e+000
    outer loop
      vertex   -8.030545e+000 -2.975000e+001 3.050000e+001
      vertex   -8.030545e+000 -2.775000e+001 3.950000e+001
      vertex   -8.030545e+000 -2.775000e+001 3.050000e+001
    endloop
  endfacet
  facet normal -0.000000e+000 1.000000e+000 0.000000e+000
    outer loop
      vertex   -8.030545e+000 -2.775000e+001 3.950000e+001
      vertex   7.969455e+000 -2.775000e+001 3.950000e+001
      vertex   -8.030545e+000 -2.775000e+001 3.050000e+001
    endloop
  endfacet
  facet normal -0.000000e+000 1.000000e+000 0.000000e+000
    outer loop
      vertex   -8.030545e+000 -2.775000e+001 3.050000e+001
      vertex   7.969455e+000 -2.775000e+001 3.950000e+001
      vertex   7.969455e+000 -2.775000e+001 3.050000e+001
    endloop
  endfacet
  facet normal 1.000000e+000 0.000000e+000 0.000000e+000
    outer loop
      vertex   7.969455e+000 -2.775000e+001 3.950000e+001
      vertex   7.969455e+000 -2.975000e+001 3.950000e+001
      vertex   7.969455e+000 -2.775000e+001 3.050000e+001
    endloop
  endfacet
  facet normal 1.000000e+000 0.000000e+000 0.000000e+000
    outer loop
      vertex   7.969455e+000 -2.775000e+001 3.050000e+001
      vertex   7.969455e+000 -2.975000e+001 3.950000e+001
      vertex   7.969455e+000 -2.975000e+001 3.050000e+001
    endloop
  endfacet
  facet normal -0.000000e+000 -1.000000e+000 -0.000000e+000
    outer loop
      vertex   7.969455e+000 -2.975000e+001 3.950000e+001
      vertex   2.500000e+000 -2.975000e+001 3.950000e+001
      vertex   7.969455e+000 -2.975000e+001 3.050000e+001
    endloop
  endfacet
  facet normal -0.000000e+000 -1.000000e+000 -0.000000e+000
    outer loop
      vertex   7.969455e+000 -2.975000e+001 3.050000e+001
      vertex   2.500000e+000 -2.975000e+001 3.950000e+001
      vertex   2.500000e+000 -2.975000e+001 3.050000e+001
    endloop
  endfacet
  facet normal -0.000000e+000 -1.000000e+000 -0.000000e+000
    outer loop
      vertex   7.969455e+000 -3.375000e+001 3.950000e+001
      vertex   2.500000e+000 -3.375000e+001 3.950000e+001
      vertex   7.969455e+000 -3.375000e+001 3.050000e+001
    endloop
  endfacet
  facet normal -0.000000e+000 -1.000000e+000 -0.000000e+000
    outer loop
      vertex   7.969455e+000 -3.375000e+001 3.050000e+001
      vertex   2.500000e+000 -3.375000e+001 3.950000e+001
      vertex   2.500000e+000 -3.375000e+001 3.050000e+001
    endloop
  endfacet
  facet normal 1.000000e+000 0.000000e+000 0.000000e+000
    outer loop
      vertex   2.500000e+000 -3.375000e+001 3.950000e+001
      vertex   2.500000e+000 -4.175000e+001 3.950000e+001
      vertex   2.500000e+000 -3.375000e+001 3.050000e+001
    endloop
  endfacet
  facet normal 1.000000e+000 0.000000e+000 0.000000e+000
    outer loop
      vertex   2.500000e+000 -3.375000e+001 3.050000e+001
      vertex   2.500000e+000 -4.175000e+001 3.950000e+001
      vertex   2.500000e+000 -4.175000e+001 3.050000e+001
    endloop
  endfacet
  facet normal 0.000000e+000 0.000000e+000 1.000000e+000
    outer loop
      vertex   7.969455e+000 -3.225000e+001 3.950000e+001
      vertex   2.500000e+000 -3.225000e+001 3.950000e+001
      vertex   7.969455e+000 -3.375000e+001 3.950000e+001
    endloop
  endfacet
  facet normal 0.000000e+000 0.000000e+000 1.000000e+000
    outer loop
      vertex   7.969455e+000 -3.375000e+001 3.950000e+001
      vertex   2.500000e+000 -3.225000e+001 3.950000e+001
      vertex   2.500000e+000 -3.375000e+001 3.950000e+001
    endloop
  endfacet
  facet normal 0.000000e+000 -0.000000e+000 1.000000e+000
    outer loop
      vertex   2.500000e+000 -3.375000e+001 3.950000e+001
      vertex   2.500000e+000 -3.225000e+001 3.950000e+001
      vertex   -2.500000e+000 -3.225000e+001 3.950000e+001
    endloop
  endfacet
  facet normal 0.000000e+000 -0.000000e+000 1.000000e+000
    outer loop
      vertex   -2.500000e+000 -3.375000e+001 3.950000e+001
      vertex   -2.500000e+000 -3.225000e+001 3.950000e+001
      vertex   -8.030545e+000 -3.225000e+001 3.950000e+001
    endloop
  endfacet
  facet normal 0.000000e+000 -0.000000e+000 1.000000e+000
    outer loop
      vertex   -8.030545e+000 -3.375000e+001 3.950000e+001
      vertex   -2.500000e+000 -3.375000e+001 3.950000e+001
      vertex   -8.030545e+000 -3.225000e+001 3.950000e+001
    endloop
  endfacet
  facet normal 0.000000e+000 -0.000000e+000 1.000000e+000
    outer loop
      vertex   -2.500000e+000 -3.225000e+001 3.950000e+001
      vertex   2.500000e+000 -3.225000e+001 3.950000e+001
      vertex   -2.500000e+000 -2.975000e+001 3.950000e+001
    endloop
  endfacet
  facet normal -0.000000e+000 0.000000e+000 1.000000e+000
    outer loop
      vertex   -2.500000e+000 -2.975000e+001 3.950000e+001
      vertex   2.500000e+000 -3.225000e+001 3.950000e+001
      vertex   2.500000e+000 -2.975000e+001 3.950000e+001
    endloop
  endfacet
  facet normal -0.000000e+000 0.000000e+000 1.000000e+000
    outer loop
      vertex   7.969455e+000 -2.775000e+001 3.950000e+001
      vertex   2.500000e+000 -2.975000e+001 3.950000e+001
      vertex   7.969455e+000 -2.975000e+001 3.950000e+001
    endloop
  endfacet
  facet normal 0.000000e+000 0.000000e+000 1.000000e+000
    outer loop
      vertex   7.969455e+000 -2.775000e+001 3.950000e+001
      vertex   -2.500000e+000 -2.975000e+001 3.950000e+001
      vertex   2.500000e+000 -2.975000e+001 3.950000e+001
    endloop
  endfacet
  facet normal 0.000000e+000 0.000000e+000 1.000000e+000
    outer loop
      vertex   7.969455e+000 -2.775000e+001 3.950000e+001
      vertex   -8.030545e+000 -2.775000e+001 3.950000e+001
      vertex   -2.500000e+000 -2.975000e+001 3.950000e+001
    endloop
  endfacet
  facet normal 0.000000e+000 0.000000e+000 1.000000e+000
    outer loop
      vertex   -2.500000e+000 -2.975000e+001 3.950000e+001
      vertex   -8.030545e+000 -2.775000e+001 3.950000e+001
      vertex   -8.030545e+000 -2.975000e+001 3.950000e+001
    endloop
  endfacet
  facet normal 0.000000e+000 -0.000000e+000 1.000000e+000
    outer loop
      vertex   -8.000000e+000 -4.825000e+001 3.950000e+001
      vertex   8.000000e+000 -4.825000e+001 3.950000e+001
      vertex   -5.000000e+000 -4.625000e+001 3.950000e+001
    endloop
  endfacet
  facet normal -0.000000e+000 0.000000e+000 1.000000e+000
    outer loop
      vertex   -8.000000e+000 -4.625000e+001 3.950000e+001
      vertex   -8.000000e+000 -4.825000e+001 3.950000e+001
      vertex   -5.000000e+000 -4.625000e+001 3.950000e+001
    endloop
  endfacet
  facet normal -0.000000e+000 0.000000e+000 1.000000e+000
    outer loop
      vertex   -8.000000e+000 -4.175000e+001 3.950000e+001
      vertex   -5.000000e+000 -4.375000e+001 3.950000e+001
      vertex   -2.500000e+000 -4.175000e+001 3.950000e+001
    endloop
  endfacet
  facet normal 0.000000e+000 0.000000e+000 1.000000e+000
    outer loop
      vertex   -8.000000e+000 -4.175000e+001 3.950000e+001
      vertex   -8.000000e+000 -4.375000e+001 3.950000e+001
      vertex   -5.000000e+000 -4.375000e+001 3.950000e+001
    endloop
  endfacet
  facet normal -0.000000e+000 0.000000e+000 1.000000e+000
    outer loop
      vertex   -5.000000e+000 -4.375000e+001 3.950000e+001
      vertex   -5.000000e+000 -4.625000e+001 3.950000e+001
      vertex   -2.500000e+000 -4.175000e+001 3.950000e+001
    endloop
  endfacet
  facet normal -0.000000e+000 0.000000e+000 1.000000e+000
    outer loop
      vertex   -2.500000e+000 -4.175000e+001 3.950000e+001
      vertex   -5.000000e+000 -4.625000e+001 3.950000e+001
      vertex   5.000000e+000 -4.625000e+001 3.950000e+001
    endloop
  endfacet
  facet normal -0.000000e+000 0.000000e+000 1.000000e+000
    outer loop
      vertex   2.500000e+000 -4.175000e+001 3.950000e+001
      vertex   5.000000e+000 -4.625000e+001 3.950000e+001
      vertex   5.000000e+000 -4.375000e+001 3.950000e+001
    endloop
  endfacet
  facet normal 0.000000e+000 0.000000e+000 1.000000e+000
    outer loop
      vertex   8.000000e+000 -4.175000e+001 3.950000e+001
      vertex   5.000000e+000 -4.375000e+001 3.950000e+001
      vertex   8.000000e+000 -4.375000e+001 3.950000e+001
    endloop
  endfacet
  facet normal 0.000000e+000 0.000000e+000 1.000000e+000
    outer loop
      vertex   8.000000e+000 -4.175000e+001 3.950000e+001
      vertex   2.500000e+000 -4.175000e+001 3.950000e+001
      vertex   5.000000e+000 -4.375000e+001 3.950000e+001
    endloop
  endfacet
  facet normal 0.000000e+000 0.000000e+000 1.000000e+000
    outer loop
      vertex   8.000000e+000 -4.625000e+001 3.950000e+001
      vertex   5.000000e+000 -4.625000e+001 3.950000e+001
      vertex   8.000000e+000 -4.825000e+001 3.950000e+001
    endloop
  endfacet
  facet normal 0.000000e+000 0.000000e+000 1.000000e+000
    outer loop
      vertex   8.000000e+000 -4.825000e+001 3.950000e+001
      vertex   5.000000e+000 -4.625000e+001 3.950000e+001
      vertex   -5.000000e+000 -4.625000e+001 3.950000e+001
    endloop
  endfacet
  facet normal 0.000000e+000 0.000000e+000 1.000000e+000
    outer loop
      vertex   2.500000e+000 -3.375000e+001 3.950000e+001
      vertex   -2.500000e+000 -3.375000e+001 3.950000e+001
      vertex   2.500000e+000 -4.175000e+001 3.950000e+001
    endloop
  endfacet
  facet normal 0.000000e+000 0.000000e+000 1.000000e+000
    outer loop
      vertex   2.500000e+000 -3.375000e+001 3.950000e+001
      vertex   -2.500000e+000 -3.225000e+001 3.950000e+001
      vertex   -2.500000e+000 -3.375000e+001 3.950000e+001
    endloop
  endfacet
  facet normal -0.000000e+000 0.000000e+000 1.000000e+000
    outer loop
      vertex   -2.500000e+000 -3.375000e+001 3.950000e+001
      vertex   -2.500000e+000 -4.175000e+001 3.950000e+001
      vertex   2.500000e+000 -4.175000e+001 3.950000e+001
    endloop
  endfacet
  facet normal 0.000000e+000 0.000000e+000 1.000000e+000
    outer loop
      vertex   2.500000e+000 -4.175000e+001 3.950000e+001
      vertex   -2.500000e+000 -4.175000e+001 3.950000e+001
      vertex   5.000000e+000 -4.625000e+001 3.950000e+001
    endloop
  endfacet
  facet normal 0.000000e+000 -0.000000e+000 -1.000000e+000
    outer loop
      vertex   -8.030545e+000 -3.225000e+001 3.050000e+001
      vertex   -2.500000e+000 -3.225000e+001 3.050000e+001
      vertex   -8.030545e+000 -3.375000e+001 3.050000e+001
    endloop
  endfacet
  facet normal 0.000000e+000 0.000000e+000 -1.000000e+000
    outer loop
      vertex   -8.030545e+000 -3.375000e+001 3.050000e+001
      vertex   -2.500000e+000 -3.225000e+001 3.050000e+001
      vertex   -2.500000e+000 -3.375000e+001 3.050000e+001
    endloop
  endfacet
  facet normal 0.000000e+000 0.000000e+000 -1.000000e+000
    outer loop
      vertex   -2.500000e+000 -3.375000e+001 3.050000e+001
      vertex   -2.500000e+000 -3.225000e+001 3.050000e+001
      vertex   2.500000e+000 -3.225000e+001 3.050000e+001
    endloop
  endfacet
  facet normal 0.000000e+000 0.000000e+000 -1.000000e+000
    outer loop
      vertex   2.500000e+000 -3.375000e+001 3.050000e+001
      vertex   2.500000e+000 -3.225000e+001 3.050000e+001
      vertex   7.969455e+000 -3.225000e+001 3.050000e+001
    endloop
  endfacet
  facet normal 0.000000e+000 0.000000e+000 -1.000000e+000
    outer loop
      vertex   7.969455e+000 -3.375000e+001 3.050000e+001
      vertex   2.500000e+000 -3.375000e+001 3.050000e+001
      vertex   7.969455e+000 -3.225000e+001 3.050000e+001
    endloop
  endfacet
  facet normal 0.000000e+000 0.000000e+000 -1.000000e+000
    outer loop
      vertex   2.500000e+000 -3.225000e+001 3.050000e+001
      vertex   -2.500000e+000 -3.225000e+001 3.050000e+001
      vertex   2.500000e+000 -2.975000e+001 3.050000e+001
    endloop
  endfacet
  facet normal -0.000000e+000 0.000000e+000 -1.000000e+000
    outer loop
      vertex   2.500000e+000 -2.975000e+001 3.050000e+001
      vertex   -2.500000e+000 -3.225000e+001 3.050000e+001
      vertex   -2.500000e+000 -2.975000e+001 3.050000e+001
    endloop
  endfacet
  facet normal -0.000000e+000 0.000000e+000 -1.000000e+000
    outer loop
      vertex   7.969455e+000 -2.775000e+001 3.050000e+001
      vertex   -2.500000e+000 -2.975000e+001 3.050000e+001
      vertex   -8.030545e+000 -2.775000e+001 3.050000e+001
    endloop
  endfacet
  facet normal -0.000000e+000 0.000000e+000 -1.000000e+000
    outer loop
      vertex   7.969455e+000 -2.775000e+001 3.050000e+001
      vertex   2.500000e+000 -2.975000e+001 3.050000e+001
      vertex   -2.500000e+000 -2.975000e+001 3.050000e+001
    endloop
  endfacet
  facet normal -0.000000e+000 -0.000000e+000 -1.000000e+000
    outer loop
      vertex   7.969455e+000 -2.775000e+001 3.050000e+001
      vertex   7.969455e+000 -2.975000e+001 3.050000e+001
      vertex   2.500000e+000 -2.975000e+001 3.050000e+001
    endloop
  endfacet
  facet normal -0.000000e+000 0.000000e+000 -1.000000e+000
    outer loop
      vertex   -2.500000e+000 -2.975000e+001 3.050000e+001
      vertex   -8.030545e+000 -2.975000e+001 3.050000e+001
      vertex   -8.030545e+000 -2.775000e+001 3.050000e+001
    endloop
  endfacet
  facet normal 0.000000e+000 0.000000e+000 -1.000000e+000
    outer loop
      vertex   8.000000e+000 -4.825000e+001 3.050000e+001
      vertex   -8.000000e+000 -4.825000e+001 3.050000e+001
      vertex   5.000000e+000 -4.625000e+001 3.050000e+001
    endloop
  endfacet
  facet normal -0.000000e+000 -0.000000e+000 -1.000000e+000
    outer loop
      vertex   8.000000e+000 -4.625000e+001 3.050000e+001
      vertex   8.000000e+000 -4.825000e+001 3.050000e+001
      vertex   5.000000e+000 -4.625000e+001 3.050000e+001
    endloop
  endfacet
  facet normal -0.000000e+000 0.000000e+000 -1.000000e+000
    outer loop
      vertex   8.000000e+000 -4.175000e+001 3.050000e+001
      vertex   5.000000e+000 -4.375000e+001 3.050000e+001
      vertex   2.500000e+000 -4.175000e+001 3.050000e+001
    endloop
  endfacet
  facet normal -0.000000e+000 -0.000000e+000 -1.000000e+000
    outer loop
      vertex   8.000000e+000 -4.175000e+001 3.050000e+001
      vertex   8.000000e+000 -4.375000e+001 3.050000e+001
      vertex   5.000000e+000 -4.375000e+001 3.050000e+001
    endloop
  endfacet
  facet normal -0.000000e+000 -0.000000e+000 -1.000000e+000
    outer loop
      vertex   5.000000e+000 -4.375000e+001 3.050000e+001
      vertex   5.000000e+000 -4.625000e+001 3.050000e+001
      vertex   2.500000e+000 -4.175000e+001 3.050000e+001
    endloop
  endfacet
  facet normal -0.000000e+000 -0.000000e+000 -1.000000e+000
    outer loop
      vertex   2.500000e+000 -4.175000e+001 3.050000e+001
      vertex   5.000000e+000 -4.625000e+001 3.050000e+001
      vertex   -5.000000e+000 -4.625000e+001 3.050000e+001
    endloop
  endfacet
  facet normal -0.000000e+000 0.000000e+000 -1.000000e+000
    outer loop
      vertex   -2.500000e+000 -4.175000e+001 3.050000e+001
      vertex   -5.000000e+000 -4.625000e+001 3.050000e+001
      vertex   -5.000000e+000 -4.375000e+001 3.050000e+001
    endloop
  endfacet
  facet normal -0.000000e+000 -0.000000e+000 -1.000000e+000
    outer loop
      vertex   -8.000000e+000 -4.175000e+001 3.050000e+001
      vertex   -5.000000e+000 -4.375000e+001 3.050000e+001
      vertex   -8.000000e+000 -4.375000e+001 3.050000e+001
    endloop
  endfacet
  facet normal 0.000000e+000 -0.000000e+000 -1.000000e+000
    outer loop
      vertex   -8.000000e+000 -4.175000e+001 3.050000e+001
      vertex   -2.500000e+000 -4.175000e+001 3.050000e+001
      vertex   -5.000000e+000 -4.375000e+001 3.050000e+001
    endloop
  endfacet
  facet normal 0.000000e+000 -0.000000e+000 -1.000000e+000
    outer loop
      vertex   -8.000000e+000 -4.625000e+001 3.050000e+001
      vertex   -5.000000e+000 -4.625000e+001 3.050000e+001
      vertex   -8.000000e+000 -4.825000e+001 3.050000e+001
    endloop
  endfacet
  facet normal 0.000000e+000 0.000000e+000 -1.000000e+000
    outer loop
      vertex   -8.000000e+000 -4.825000e+001 3.050000e+001
      vertex   -5.000000e+000 -4.625000e+001 3.050000e+001
      vertex   5.000000e+000 -4.625000e+001 3.050000e+001
    endloop
  endfacet
  facet normal 0.000000e+000 -0.000000e+000 -1.000000e+000
    outer loop
      vertex   -2.500000e+000 -3.375000e+001 3.050000e+001
      vertex   2.500000e+000 -3.375000e+001 3.050000e+001
      vertex   -2.500000e+000 -4.175000e+001 3.050000e+001
    endloop
  endfacet
  facet normal 0.000000e+000 0.000000e+000 -1.000000e+000
    outer loop
      vertex   -2.500000e+000 -3.375000e+001 3.050000e+001
      vertex   2.500000e+000 -3.225000e+001 3.050000e+001
      vertex   2.500000e+000 -3.375000e+001 3.050000e+001
    endloop
  endfacet
  facet normal -0.000000e+000 -0.000000e+000 -1.000000e+000
    outer loop
      vertex   2.500000e+000 -3.375000e+001 3.050000e+001
      vertex   2.500000e+000 -4.175000e+001 3.050000e+001
      vertex   -2.500000e+000 -4.175000e+001 3.050000e+001
    endloop
  endfacet
  facet normal 0.000000e+000 -0.000000e+000 -1.000000e+000
    outer loop
      vertex   -2.500000e+000 -4.175000e+001 3.050000e+001
      vertex   2.500000e+000 -4.175000e+001 3.050000e+001
      vertex   -5.000000e+000 -4.625000e+001 3.050000e+001
    endloop
  endfacet
  facet normal 1.000000e+000 0.000000e+000 0.000000e+000
    outer loop
      vertex   7.969455e+000 -3.225000e+001 3.950000e+001
      vertex   7.969455e+000 -3.375000e+001 3.950000e+001
      vertex   7.969455e+000 -3.225000e+001 3.050000e+001
    endloop
  endfacet
  facet normal 1.000000e+000 0.000000e+000 0.000000e+000
    outer loop
      vertex   7.969455e+000 -3.225000e+001 3.050000e+001
      vertex   7.969455e+000 -3.375000e+001 3.950000e+001
      vertex   7.969455e+000 -3.375000e+001 3.050000e+001
    endloop
  endfacet
  facet normal -0.000000e+000 1.000000e+000 0.000000e+000
    outer loop
      vertex   2.500000e+000 -3.225000e+001 3.950000e+001
      vertex   7.969455e+000 -3.225000e+001 3.950000e+001
      vertex   2.500000e+000 -3.225000e+001 3.050000e+001
    endloop
  endfacet
  facet normal -0.000000e+000 1.000000e+000 0.000000e+000
    outer loop
      vertex   2.500000e+000 -3.225000e+001 3.050000e+001
      vertex   7.969455e+000 -3.225000e+001 3.950000e+001
      vertex   7.969455e+000 -3.225000e+001 3.050000e+001
    endloop
  endfacet
  facet normal -1.000000e+000 0.000000e+000 -0.000000e+000
    outer loop
      vertex   -2.500000e+000 -3.225000e+001 3.950000e+001
      vertex   -2.500000e+000 -2.975000e+001 3.950000e+001
      vertex   -2.500000e+000 -3.225000e+001 3.050000e+001
    endloop
  endfacet
  facet normal -1.000000e+000 0.000000e+000 0.000000e+000
    outer loop
      vertex   -2.500000e+000 -3.225000e+001 3.050000e+001
      vertex   -2.500000e+000 -2.975000e+001 3.950000e+001
      vertex   -2.500000e+000 -2.975000e+001 3.050000e+001
    endloop
  endfacet
  facet normal -0.000000e+000 1.000000e+000 0.000000e+000
    outer loop
      vertex   -8.030545e+000 -3.225000e+001 3.950000e+001
      vertex   -2.500000e+000 -3.225000e+001 3.950000e+001
      vertex   -8.030545e+000 -3.225000e+001 3.050000e+001
    endloop
  endfacet
  facet normal -0.000000e+000 1.000000e+000 0.000000e+000
    outer loop
      vertex   -8.030545e+000 -3.225000e+001 3.050000e+001
      vertex   -2.500000e+000 -3.225000e+001 3.950000e+001
      vertex   -2.500000e+000 -3.225000e+001 3.050000e+001
    endloop
  endfacet
endsolid
